<?xml version="1.0" encoding="utf-8"?>
<!-- Generator: Adobe Illustrator 23.0.3, SVG Export Plug-In . SVG Version: 6.00 Build 0)  -->
<svg version="1.1" id="Camada_1" xmlns="http://www.w3.org/2000/svg" xmlns:xlink="http://www.w3.org/1999/xlink" x="0px" y="0px"
	 viewBox="0 0 45 45" style="enable-background:new 0 0 45 45;" xml:space="preserve">
<path d="M32.7,30.3l-5.8-5.8c1.3-1.6,2.1-3.7,2.1-6c0-5.2-4.3-9.5-9.5-9.5S10,13.3,10,18.5c0,5.2,4.3,9.5,9.5,9.5
	c2.3,0,4.3-0.8,6-2.1l5.8,5.8c0.2,0.2,0.5,0.3,0.7,0.3s0.5-0.1,0.7-0.3C33.1,31.3,33.1,30.7,32.7,30.3z M19.5,26
	c-4.1,0-7.5-3.4-7.5-7.5s3.4-7.5,7.5-7.5s7.5,3.4,7.5,7.5S23.6,26,19.5,26z"/>
</svg>
